<svg xmlns="http://www.w3.org/2000/svg" viewBox="0 0 34.18 46.59"><title>char_S</title><g id="レイヤー_2" data-name="レイヤー 2"><g id="レイヤー_1-2" data-name="レイヤー 1"><path d="M34,32.34c0,.86.13,1.65.13,2.44,0,1.85-.66,1.78-1.06,3.3a10.07,10.07,0,0,1-2.24,3.69c-.73.8-1.45,1.65-2.24,2.38a1,1,0,0,1-.47.33,36.84,36.84,0,0,1-3.49,1.45,27.73,27.73,0,0,1-5.81.66,26.93,26.93,0,0,1-6.34-1.05,12.1,12.1,0,0,1-3.23-1.26l-1.85-.92a12.67,12.67,0,0,1-4.62-4.49A18.48,18.48,0,0,1,1,35.5a17.65,17.65,0,0,1-1-3.89c0-2.18,3.17-2.31,4.62-2.31,1.71,0,3.5,0,5.21.07,1.32.13,1.72,2.44,2.05,3.43.72,2.37,4.42,3.7,6.66,3.7,3,0,4.95-1.33,4.95-4.49a2.33,2.33,0,0,0-1.32-2.25c-2.24-1.58-9.9-3.63-12.87-4.48-.59-.14-1.25-.27-1.84-.47a3.81,3.81,0,0,1-1.13-.59c-.72-.66-1.45-1.45-2.24-2.11-1.58-1.45-2.77-5.48-2.77-7.59a15.07,15.07,0,0,1,.73-4.22c.33-.86.66-1.65.92-2.51a7.47,7.47,0,0,1,2-3,18.21,18.21,0,0,1,2.9-2.71A22.25,22.25,0,0,1,17.36,0a10.85,10.85,0,0,1,2,.2c.86.2,1.72.26,2.58.39A18.87,18.87,0,0,1,28.25,3.5a3.3,3.3,0,0,1,.85,1.12A14.27,14.27,0,0,0,30.49,7,12.38,12.38,0,0,1,32,13.53c0,.26-.07.59-.07.92a1.93,1.93,0,0,1-1.85,2.18,16.42,16.42,0,0,1-2.57.2c-1.52,0-4.22-.13-5.61-.93a1.08,1.08,0,0,1-.66-.92c-.2-1.58-.92-4.22-2.57-4.82a8,8,0,0,0-2.45-.59,6.24,6.24,0,0,0-2.64.79c-.52.27-.72.73-1.05,1.12A2.19,2.19,0,0,0,12,13c0,2.51,2.3,3,4.09,3.76,4.95,2.11,11.81,2.31,15,7.13.52.73,1.71,1.72,2,2.38a10.07,10.07,0,0,1,1.12,3.89C34.18,30.89,34,31.61,34,32.34ZM5.28,17.55,5,17.69c-.14.06-.14.33-.14.46,0,.33.14.66.53.66.13,0,.33-.33.4-.4Zm2,14.59v.26c0,.86.07,1.32,1,1.39C8.12,33.06,8,32.4,7.26,32.14Zm3.5-26.86c-.2,0-.33-.13-.53-.13-.73,0-2.38,3.5-2.64,4.22l.07.27c1.18-.93.46-1.13.92-1.79a8.32,8.32,0,0,1,2-2.31ZM10.82,42a.77.77,0,0,0-.39-.07.44.44,0,0,0-.4.46c0,.4.33.47.66.53ZM17.88,4l-.13.2v.06a.8.8,0,0,0,.73.8c.46,0,.33-.33.33-.66Zm3.37,20.26c-.33-.13-2.51-1-2.71-1s-.26.13-.19.33c1.38.26,2.57,1.25,4,1.65A2.59,2.59,0,0,0,21.25,24.22ZM24.42,42l-4.09,1a2.34,2.34,0,0,0,.52.2,18.74,18.74,0,0,0,3.3-.53c.2-.06.33-.13.33-.39A.45.45,0,0,0,24.42,42ZM28,9.9a.91.91,0,0,0-.06.4,5.42,5.42,0,0,0,.46,2.11c.2-.14.2-.47.2-.73A2.88,2.88,0,0,0,28,9.9Zm1.85,20.79a5.4,5.4,0,0,0-.33,2c0,.6.07,1.12.07,1.72a2.54,2.54,0,0,0,.79-2.24A2.12,2.12,0,0,0,29.83,30.69Z"/></g></g></svg>