<svg xmlns="http://www.w3.org/2000/svg" viewBox="0 0 33.86 46.33"><title>char_K</title><g id="レイヤー_2" data-name="レイヤー 2"><g id="レイヤー_1-2" data-name="レイヤー 1"><path d="M32.27,3.76q-2.67,3.76-5.15,7.52c-1,1.46-1.78,3.11-2.7,4.62l-1.78,2.64c.66,1.92,1.18,3.9,2,5.68.85,2,7.85,18.41,7.85,21.05,0,.93-1.91.93-2.57.93s-1.13-.07-1.65-.07c-1.26,0-2.45.07-3.7.07-.59,0-1.12-.07-1.72-.07-1.38.07-1.38-.66-1.84-1.72l-2.38-6c-1.12-2.84-2.44-5.61-3.56-8.45-1.26,2-2.51,4-3.83,5.94,0,2.77-.07,5.54-.07,8.32,0,.26.07.52.07.79,0,1.05-.93,1.12-1.78,1.12-.33,0-.66.13-1,.13-1.12.07-2.31.07-3.5.07a16.42,16.42,0,0,1-2.57-.2C.73,45.87.46,45.8.33,44,.2,42.43.2,40.85.2,39.27c0-.8.13-1.59.13-2.38,0-4.75-.13-9.5-.13-14.25,0-2.12.06-4.23,0-6.34,0-1.72-.2-3.43-.2-5.21C0,10,.13,9,.13,8,.13,7.46,0,6.93,0,6.47,0,5.21.07,4,.07,2.84.13.33.4.4,2.51.26,4,.13,5.68.07,7.19.07c.33,0,.73.06,1.06.06h.53c1.45.13,2.31.33,2.31,2.05,0,2.37-.13,4.75-.13,7.13s.13,4.48.26,6.73c2.31-3.3,4.36-6.67,6.6-10l1-1.52a17.69,17.69,0,0,0,1.91-3A2.65,2.65,0,0,1,22.77.13,16,16,0,0,1,25.28.07h5c.6,0,1.19-.07,1.78-.07s1.79.07,1.79,1S32.8,3,32.27,3.76ZM2.77,43.42a.53.53,0,0,0-.33-.13c-.26,0-.39.27-.39.53s.33.46.66.53ZM3.7,3.1,3.43,3c-.2.2-.13.46-.13.73v.66c0,.52-.13.85.53,1.12C3.89,4.88,4,4.29,4,3.7,4,3.5,3.76,3.3,3.7,3.1ZM5.61,14.65c-.13,0-.26-.07-.4-.07s-.33.27-.33.53.27.46.6.46Zm.33,16.24c0-.33,0-1.32-.26-1.59-.33.2-.27.93-.27,1.26s.07.79.07,1.18-.2.8-.2,1.12a18.19,18.19,0,0,0,.13,3.3c.27.14.33.4.4.73a2,2,0,0,0,.06-.59c0-.8-.13-1.59-.13-2.45,0-.26.2-.52.2-.85Zm7.26-8.32c0,.33-.07.66-.07.92a.83.83,0,0,0,.27.66c.26-.19.72-.33.72-.79C14.12,23.1,13.46,22.64,13.2,22.57Zm7.13-12A37.18,37.18,0,0,0,15.64,17l.13.07c.2,0,.27-.2.4-.33a52.88,52.88,0,0,0,4.49-6.21A.67.67,0,0,0,20.33,10.56Zm1.91,19.73a8.27,8.27,0,0,0-.59-.86.5.5,0,0,1-.14.27A33.24,33.24,0,0,0,24.81,37a.48.48,0,0,0,.14-.26C25,36.69,22.64,31.28,22.24,30.29ZM22.9,3.76v.07c1-.6,1-.6,1.06-1.78A2,2,0,0,0,22.9,3.76Zm1.52,37.42-.33,1L24.81,44c.14-.26.27-.59.66-.59A4.45,4.45,0,0,0,24.42,41.18Z"/></g></g></svg>