<svg xmlns="http://www.w3.org/2000/svg" viewBox="0 0 33.99 46.46"><title>char_T</title><g id="レイヤー_2" data-name="レイヤー 2"><g id="レイヤー_1-2" data-name="レイヤー 1"><path d="M33.86,8c-.07,1.84-.33,2.24-2.18,2.31-.66,0-1.65.26-1.91.26-.53,0-1.06-.13-1.59-.13s-1.12.13-1.71.13a17,17,0,0,0-3.63.13,17.79,17.79,0,0,0-.33,3.23c0,2.05.33,4,.33,6,0,1-.13,2-.13,2.9A32.94,32.94,0,0,0,23,27.92c0,.13.07.26.07.46,0,.79-.33,1.65-.33,2.57,0,1.32.19,2.71.19,4.09,0,1.06-.06,2.18-.06,3.24,0,2.31.2,4.62-.46,6.86-.2.79-.53.46-.93.92a.72.72,0,0,1-.73.4c-.52,0-1-.13-1.51-.13A53,53,0,0,1,13.73,46a2.29,2.29,0,0,1-1.58-1,17.54,17.54,0,0,1-.33-1.85c0-1.19.19-2.31.19-3.5,0-1.65-.39-3.23-.39-4.88,0-.73.2-1.39.2-2.11,0-1.92-.33-3.9-.33-5.81,0-.92.33-1.85.33-2.84,0-.79-.14-1.58-.14-2.37V18c0-1.91-.13-3.83-.19-5.74,0-.79-.27-1.32-1.13-1.32-.66,0-1.32.13-2,.13-1.71,0-3.43-.26-5.14-.26-.53,0-1.06.13-1.59.13A1.29,1.29,0,0,1,.4,9.7,30.72,30.72,0,0,0,.14,6.47,8.6,8.6,0,0,1,0,4.55C0,2.57-.2.13,2.51.13c1,0,2.05.13,3,.13S7.39.13,8.32.13C9.9.13,11.42.2,13,.2c1.06,0,2.12-.2,3.17-.2a12.09,12.09,0,0,1,1.59.07c.85.13,1.71.06,2.5.13,1.26,0,2.45.2,3.63.2,2.25,0,4.42-.27,6.67-.27.86,0,2.77-.2,3.1.86A9.3,9.3,0,0,1,34,3.37C34,4.88,33.92,6.4,33.86,8ZM3.37,3.3a1.34,1.34,0,0,0-.46.92c0,.27.06.6.33.6S4,4.22,4,3.89,3.7,3.37,3.37,3.3Zm13.46.86a7.59,7.59,0,0,0-3-.33c-.6,0-1.13.06-1.72.06-.4.07-.53.07-.53.47v.13h2.77c.27,0,.6-.27,1.06-.27s.92.07,1.39.07ZM15.51,29.24a1.84,1.84,0,0,0-.26-1,5.21,5.21,0,0,0-.2,1.78v1.25c0,1.92.07,3.83.07,5.74a1.53,1.53,0,0,0,.26.93c.4-.2.26-2.12.26-2.58C15.64,33.33,15.58,31.28,15.51,29.24ZM18.22,9.77A2.41,2.41,0,0,0,17.89,11a32.81,32.81,0,0,0,.26,4.55l.4.33v-.66c0-.4-.07-.73-.07-1.06,0-1,.13-2,.13-3A2.45,2.45,0,0,0,18.22,9.77ZM19.34,22.9a2.35,2.35,0,0,0-.2.92v.4a4.68,4.68,0,0,1,0,1c.6-.26.66-.79.66-1.39A1,1,0,0,0,19.34,22.9Zm.46,19.6c-.2,0-.26.2-.26.4a2,2,0,0,0,.06.59l.2.13c.26-.06.26-.26.26-.46S20.13,42.5,19.8,42.5ZM27.65,4.62c-.26,0-.79.66-.79.92s.13.53.4.53c.66,0,.79-.26.86-.86C28,5,28.05,4.75,27.65,4.62Z"/></g></g></svg>