<svg xmlns="http://www.w3.org/2000/svg" viewBox="0 0 38.67 46.26"><title>char_H</title><g id="レイヤー_2" data-name="レイヤー 2"><g id="レイヤー_1-2" data-name="レイヤー 1"><path d="M38.47,21.58c0,.46.07.92.07,1.39s-.07.66-.07,1c0,.59.07,1.18.07,1.78,0,1.65.07,3.23.07,4.82,0,.66-.2,1.32-.2,2s.13,1.18.13,1.78v3.89a17.89,17.89,0,0,0,0,2.64,4.08,4.08,0,0,1,.07.92c0,.86-.14,1.72-.14,2.58s-.13,1-.79,1.25a13.5,13.5,0,0,1-3.69.33c-.86,0-1.72-.06-2.58-.06s-1.91.06-2.83,0c-.73-.07-.86-.27-1-.93a11.5,11.5,0,0,1-.19-2.11c0-.86.06-1.65.06-2.51,0-1.91-.13-3.76-.13-5.67s.07-4,.07-6.07a13.69,13.69,0,0,0-.07-2.31c-.07-.27-.2-.53-.53-.53s-.85.06-1.25.06c-.73,0-1.52-.06-2.24-.06s-1.32.13-2,.13c-1.85,0-3.7-.2-5.55-.2-1.19,0-2.31.07-3.5.07-.46.06-.72.2-.79.72-.06.86,0,1.79-.06,2.71S11.35,31,11.35,32c0,.79.26,1.52.26,2.31s-.19,1.45-.19,2.24a71,71,0,0,1-.07,8.38c-.06.73-.33.86-1,1.06a9.11,9.11,0,0,1-2.64.26c-1.58,0-3.23-.06-4.82-.13A2.2,2.2,0,0,1,1,44.55,13.83,13.83,0,0,1,.53,42.3c0-1,.13-2,.13-3.1S.59,37.35.53,36.49C.46,34.91.4,33.33.4,31.81c0-.73.33-1.32.33-2s-.2-1.32-.2-2c-.07-1.25,0-2.5-.07-3.69,0-.46-.06-1-.06-1.45s.13-.86.13-1.26c0-3.1-.27-6.2-.33-9.3,0-1.19.06-2.44,0-3.63,0-.27-.13-.53-.13-.86C.07,6.47,0,5.28,0,4.09A17.67,17.67,0,0,1,.2,2.18C.33-.07,4,0,5.61,0A17.71,17.71,0,0,1,9.77.33a1.61,1.61,0,0,1,1.32,1.39,18.47,18.47,0,0,1,.46,2.64c.06,1.18-.07,2.44,0,3.69,0,1.59.33,3.1.39,4.75,0,.4.14.79.14,1.19a.81.81,0,0,1-.07.4c-.2,1.12,3.37.92,4.09.92,1,0,1.85-.2,2.84-.26,2.11-.2,4.22,0,6.4-.2.53,0,1.06-.13,1.06-.73.06-1.25.06-2.51.06-3.69,0-1.72-.19-3.43-.19-5.22a37.57,37.57,0,0,1,.19-3.76A1.85,1.85,0,0,1,28.31.07c.86,0,1.65.26,2.44.26S32.54.26,33.46.26c.59,0,1.25.14,1.85.14C35.7.4,36,.26,36.43.26c1.38,0,1.91,1,1.91,2.31,0,.66-.06,1.39-.06,2.05,0,2.44.13,4.82.13,7.26,0,.53-.13,1.12-.13,1.65,0,1.78.39,3.63.39,5.41C38.67,19.86,38.47,20.72,38.47,21.58ZM4.16,3H4V4a2.7,2.7,0,0,0,.26,1.19,1.26,1.26,0,0,0,.47-.93C4.69,3.83,4.69,3,4.16,3Zm1,23.09a6.68,6.68,0,0,0-.33-2.83l-.13.06a16.26,16.26,0,0,0-.33,2.58v4.75a.62.62,0,0,0,.19.53,1.62,1.62,0,0,1,.14-.8,5.37,5.37,0,0,0,.46-2.9Zm.33,14.39c-.6,0-.53.59-.6,1,.07.07.14.07.27.07h.06c.33,0,.53-.14.53-.47C5.74,41,5.67,40.52,5.48,40.52ZM9,12.61a5.34,5.34,0,0,0-.72,2.7v.4a1,1,0,0,0,.39.13c.4,0,.46-1.32.46-1.65A11.88,11.88,0,0,0,9,12.61Zm11.62,7.25c-.6,0-4.56.2-4.76.33l-.06.07a6.23,6.23,0,0,0,1.91.53c1,0,1.92-.4,2.84-.4.53,0,1.12.13,1.52-.26A5.7,5.7,0,0,0,20.66,19.86ZM30.82,5.61a.85.85,0,0,0-.27.66c0,.26.2,1,.53,1s.53-.59.53-.86C31.61,5.94,31.15,5.74,30.82,5.61Zm.66,24.29-.07.06c0,1.19-.06,2.38-.06,3.57v1c0,.66.06,3.56.39,3.82.14-.06.2-.26.2-.46v-1c0-.66.2-1.32.2-2A25.37,25.37,0,0,0,31.48,29.9Zm2.77-7.26h-.73c.07.52.14.92.73.92.33,0,.66-.07.66-.46S34.58,22.64,34.25,22.64ZM35.31,10.1a.75.75,0,0,0-.33.72c-.07.53-.33,2-.33,2.25A40.46,40.46,0,0,0,35,18.15a.57.57,0,0,0,.33-.6V16.5c0-.53.13-1.06.13-1.59,0-1.32.07-2.57.07-3.82A1.35,1.35,0,0,0,35.31,10.1ZM36,43.23a2,2,0,0,0-.53,1.12.85.85,0,0,0,.27.66,1.44,1.44,0,0,0,.66-1A1.13,1.13,0,0,0,36,43.23Z"/></g></g></svg>